:FULLY-SPECIFIED
:FORCE-ALL-JOINTS-BE-3DOF
:DEGREES
510
root -5.10202 15.0366 -42.5504 366.231 -0.389147 345.624
lfemur -61.7991 39.7607 -16.1658
ltibia 73.3861 0 0
lfoot -17.5135 31.6776 0
ltoes 2.30073 0 0
rfemur -16.2042 -19.3508 7.04415
rtibia 52.6935 0 0
rfoot -2.70535 -24.3288 0
rtoes 3.8342 0 0
lowerback 15.5077 1.29822 -4.48239
upperback -1.3764 1.23165 3.4034
thorax -10.4396 0.965293 5.99076
lowerneck 4.04658 -15.2619 -16.9138
upperneck 4.45159 -22.283 19.8292
head 4.85479 -11.2052 7.39276
lclavicle 2.38542e-15 9.54166e-15 0
lhumerus 19.3441 -73.7217 76.807
lradius 79.779 0 0
lwrist 16.2469 0 0
lhand -3.90798 37.2091 0
lfingers 7.12502 0 0
lthumb 21.8423 65.9964 0
rclavicle 2.38542e-15 9.54166e-15 0
rhumerus 83.3842 34.6424 -11.6979
rradius 110.227 0 0
rwrist -22.2269 0 0
rhand -9.27785 -25.1467 0
rfingers 7.12502 0 0
rthumb 16.679 -54.4502 0
511
root -5.21475 15.0252 -42.6123 366.513 -2.56991 347.145
lfemur -61.36 40.024 -16.0184
ltibia 73.0655 0 0
lfoot -17.4787 31.5913 0
ltoes 2.27993 0 0
rfemur -16.459 -19.5669 6.99651
rtibia 53.2419 0 0
rfoot -2.72945 -23.8703 0
rtoes 3.79892 0 0
lowerback 15.4696 1.3575 -4.45602
upperback -1.39098 1.31116 3.34846
thorax -10.4508 1.002 5.89609
lowerneck 3.95716 -15.1665 -16.8492
upperneck 4.48499 -22.1385 19.6855
head 4.84332 -11.1312 7.34645
lclavicle 1.79052e-15 9.55671e-15 0
lhumerus 18.7353 -73.3824 76.9419
lradius 79.9412 0 0
lwrist 16.7419 0 0
lhand -3.995 37.2962 0
lfingers 7.12502 0 0
lthumb 21.7586 66.0909 0
rclavicle 1.79052e-15 9.55671e-15 0
rhumerus 83.1216 34.4956 -11.9599
rradius 109.106 0 0
rwrist -21.4665 0 0
rhand -9.97737 -25.1769 0
rfingers 7.12502 0 0
rthumb 16.012 -54.5919 0
512
root -5.32368 15.0112 -42.6668 366.585 -4.79628 348.717
lfemur -60.7107 40.1738 -15.8563
ltibia 72.6832 0 0
lfoot -17.466 31.5099 0
ltoes 2.19057 0 0
rfemur -16.8601 -19.7651 6.96957
rtibia 53.8171 0 0
rfoot -2.77806 -23.3259 0
rtoes 3.7903 0 0
lowerback 15.4294 1.41227 -4.43802
upperback -1.40148 1.3833 3.29329
thorax -10.4547 1.03515 5.80777
lowerneck 3.85768 -15.0542 -16.7708
upperneck 4.5187 -21.967 19.5102
head 4.82577 -11.0438 7.29074
lclavicle 1.15698e-15 9.50427e-15 0
lhumerus 17.8729 -72.9042 77.1643
lradius 80.1651 0 0
lwrist 17.3549 0 0
lhand -4.11683 37.3853 0
lfingers 7.12502 0 0
lthumb 21.6414 66.1913 0
rclavicle 1.15698e-15 9.50427e-15 0
rhumerus 82.672 34.2565 -12.3245
rradius 107.803 0 0
rwrist -20.6164 0 0
rhand -10.6869 -25.1912 0
rfingers 7.12502 0 0
rthumb 15.3347 -54.7102 0
513
root -5.42887 14.9947 -42.7141 366.456 -7.06391 350.336
lfemur -59.8624 40.2154 -15.6803
ltibia 72.2423 0 0
lfoot -17.4741 31.4331 0
ltoes 2.03589 0 0
rfemur -17.3997 -19.946 6.96218
rtibia 54.4165 0 0
rfoot -2.8497 -22.7006 0
rtoes 3.80686 0 0
lowerback 15.3873 1.46277 -4.42799
upperback -1.40809 1.44846 3.23794
thorax -10.4516 1.06492 5.72549
lowerneck 3.74879 -14.9262 -16.6794
upperneck 4.55247 -21.7699 19.305
head 4.80241 -10.9436 7.22617
lclavicle 4.89178e-16 9.38709e-15 0
lhumerus 16.77 -72.294 77.4697
lradius 80.4475 0 0
lwrist 18.0794 0 0
lhand -4.27116 37.4768 0
lfingers 7.12502 0 0
lthumb 21.493 66.2975 0
rclavicle 4.89178e-16 9.38709e-15 0
rhumerus 82.0445 33.931 -12.7864
rradius 106.328 0 0
rwrist -19.6824 0 0
rhand -11.4045 -25.1903 0
rfingers 7.12502 0 0
rthumb 14.6488 -54.8061 0
514
root -5.53036 14.9758 -42.7547 366.138 -9.36847 351.997
lfemur -58.8259 40.1541 -15.4915
ltibia 71.7459 0 0
lfoot -17.502 31.3607 0
ltoes 1.81913 0 0
rfemur -18.0699 -20.1103 6.97319
rtibia 55.0379 0 0
rfoot -2.94291 -21.9993 0
rtoes 3.84716 0 0
lowerback 15.3434 1.50921 -4.42552
upperback -1.411 1.50697 3.18242
thorax -10.4421 1.09148 5.64897
lowerneck 3.63117 -14.7834 -16.5758
upperneck 4.58607 -21.549 19.0717
head 4.77348 -10.8315 7.15328
lclavicle -2.08503e-16 9.20788e-15 0
lhumerus 15.4397 -71.5592 77.8537
lradius 80.7851 0 0
lwrist 18.909 0 0
lhand -4.4557 37.5709 0
lfingers 7.12502 0 0
lthumb 21.3156 66.4095 0
rclavicle -2.08503e-16 9.20788e-15 0
rhumerus 81.2485 33.5248 -13.3402
rradius 104.693 0 0
rwrist -18.6705 0 0
rhand -12.1282 -25.1752 0
rfingers 7.12502 0 0
rthumb 13.9562 -54.8808 0
515
root -5.62819 14.9548 -42.7887 365.641 -11.7056 353.697
lfemur -57.6123 39.9952 -15.2909
ltibia 71.1972 0 0
lfoot -17.5486 31.2924 0
ltoes 1.54353 0 0
rfemur -18.8632 -20.2585 7.00145
rtibia 55.6789 0 0
rfoot -3.05625 -21.2267 0
rtoes 3.90973 0 0
lowerback 15.298 1.55181 -4.43021
upperback -1.4104 1.55921 3.12675
thorax -10.4263 1.11499 5.57792
lowerneck 3.50547 -14.6267 -16.4608
upperneck 4.61926 -21.3057 18.8121
head 4.73924 -10.7083 7.0726
lclavicle -9.31683e-16 8.96937e-15 0
lhumerus 13.8951 -70.7067 78.3118
lradius 81.1749 0 0
lwrist 19.8374 0 0
lhand -4.66815 37.6678 0
lfingers 7.12502 0 0
lthumb 21.1115 66.5274 0
rclavicle -9.31683e-16 8.96937e-15 0
rhumerus 80.2933 33.0438 -13.9805
rradius 102.91 0 0
rwrist -17.5867 0 0
rhand -12.8563 -25.147 0
rfingers 7.12502 0 0
rthumb 13.2589 -54.9353 0
516
root -5.72242 14.9319 -42.8165 364.977 -14.071 355.43
lfemur -56.2326 39.744 -15.0793
ltibia 70.5992 0 0
lfoot -17.6127 31.2279 0
ltoes 1.21234 0 0
rfemur -19.7717 -20.3911 7.04583
rtibia 56.3371 0 0
rfoot -3.18824 -20.3879 0
rtoes 3.99311 0 0
lowerback 15.251 1.5908 -4.44166
upperback -1.40648 1.60553 3.07095
thorax -10.4047 1.13565 5.51204
lowerneck 3.37238 -14.4572 -16.335
upperneck 4.65179 -21.0416 18.5279
head 4.69994 -10.5747 6.98467
lclavicle -1.67598e-15 8.6743e-15 0
lhumerus 12.1491 -69.7436 78.8397
lradius 81.6137 0 0
lwrist 20.8581 0 0
lhand -4.9062 37.7677 0
lfingers 7.12502 0 0
lthumb 20.8827 66.6511 0
rclavicle -1.67598e-15 8.6743e-15 0
rhumerus 79.1883 32.4936 -14.7021
rradius 100.989 0 0
rwrist -16.4368 0 0
rhand -13.5867 -25.1063 0
rfingers 7.12502 0 0
rthumb 12.5586 -54.9708 0
517
root -5.81308 14.9071 -42.8383 364.156 -16.4602 357.193
lfemur -54.6977 39.4058 -14.8578
ltibia 69.955 0 0
lfoot -17.6932 31.1669 0
ltoes 0.828783 0 0
rfemur -20.7877 -20.5087 7.10517
rtibia 57.0102 0 0
rfoot -3.33742 -19.4876 0
rtoes 4.09585 0 0
lowerback 15.2026 1.62639 -4.45947
upperback -1.39944 1.64629 3.01505
thorax -10.3776 1.15362 5.45105
lowerneck 3.23255 -14.2758 -16.1992
upperneck 4.68345 -20.7583 18.2209
head 4.65585 -10.4316 6.89002
lclavicle -2.43703e-15 8.32538e-15 0
lhumerus 10.2148 -68.6772 79.4328
lradius 82.0982 0 0
lwrist 21.9648 0 0
lhand -5.16756 37.871 0
lfingers 7.12502 0 0
lthumb 20.6315 66.7805 0
rclavicle -2.43703e-15 8.32538e-15 0
rhumerus 77.9428 31.8801 -15.4995
rradius 98.9423 0 0
rwrist -15.2268 0 0
rhand -14.3176 -25.0543 0
rfingers 7.12502 0 0
rthumb 11.8572 -54.9885 0
518
root -5.90022 14.8808 -42.8544 363.189 -18.8691 358.979
lfemur -53.0186 38.9858 -14.6272
ltibia 69.2679 0 0
lfoot -17.789 31.1092 0
ltoes 0.39611 0 0
rfemur -21.9034 -20.612 7.17833
rtibia 57.6957 0 0
rfoot -3.50234 -18.5308 0
rtoes 4.21647 0 0
lowerback 15.1531 1.6588 -4.48323
upperback -1.38946 1.68185 2.95907
thorax -10.3455 1.16907 5.39465
lowerneck 3.08665 -14.0835 -16.0542
upperneck 4.71398 -20.4574 17.893
head 4.6072 -10.2796 6.7892
lclavicle -3.21043e-15 7.92536e-15 0
lhumerus 8.10539 -67.5145 80.0867
lradius 82.6254 0 0
lwrist 23.1511 0 0
lhand -5.44991 37.9778 0
lfingers 7.12502 0 0
lthumb 20.3602 66.9158 0
rclavicle -3.21043e-15 7.92536e-15 0
rhumerus 76.5661 31.209 -16.3674
rradius 96.7806 0 0
rwrist -13.9627 0 0
rhand -15.047 -24.9917 0
rfingers 7.12502 0 0
rthumb 11.1566 -54.9893 0
519
root -5.98389 14.853 -42.8652 362.087 -21.2931 360.786
lfemur -51.2064 38.4895 -14.3886
ltibia 68.541 0 0
lfoot -17.899 31.0544 0
ltoes -0.0824416 0 0
rfemur -23.1111 -20.7014 7.26416
rtibia 58.3913 0 0
rfoot -3.68154 -17.5223 0
rtoes 4.35353 0 0
lowerback 15.1025 1.68827 -4.51254
upperback -1.37674 1.71257 2.90304
thorax -10.3085 1.18218 5.34255
lowerneck 2.93534 -13.8814 -15.9007
upperneck 4.74315 -20.1404 17.5457
head 4.55427 -10.1197 6.68273
lclavicle -3.99181e-15 7.47694e-15 0
lhumerus 5.83381 -66.2626 80.797
lradius 83.192 0 0
lwrist 24.4106 0 0
lhand -5.75097 38.0885 0
lfingers 7.12502 0 0
lthumb 20.0709 67.0568 0
rclavicle -3.99181e-15 7.47694e-15 0
rhumerus 75.0675 30.4862 -17.3004
rradius 94.5154 0 0
rwrist -12.6503 0 0
rhand -15.7731 -24.9196 0
rfingers 7.12502 0 0
rthumb 10.4587 -54.9746 0
520
root -6.06414 14.8239 -42.8709 360.861 -23.728 362.609
lfemur -49.2719 37.922 -14.1429
ltibia 67.7772 0 0
lfoot -18.022 31.0023 0
ltoes -0.603631 0 0
rfemur -24.4031 -20.7775 7.36152
rtibia 59.0947 0 0
rfoot -3.87354 -16.467 0
rtoes 4.50557 0 0
lowerback 15.0509 1.71501 -4.54701
upperback -1.36147 1.73881 2.84697
thorax -10.2672 1.19312 5.29447
lowerneck 2.7793 -13.6704 -15.7395
upperneck 4.77073 -19.8088 17.181
head 4.49731 -9.9525 6.57115
lclavicle -4.7768e-15 6.98287e-15 0
lhumerus 3.41317 -64.9287 81.5592
lradius 83.7949 0 0
lwrist 25.7368 0 0
lhand -6.06842 38.2032 0
lfingers 7.12502 0 0
lthumb 19.7659 67.2035 0
rclavicle -4.7768e-15 6.98287e-15 0
rhumerus 73.4563 29.7174 -18.2933
rradius 92.1579 0 0
rwrist -11.2957 0 0
rhand -16.4939 -24.8388 0
rfingers 7.12502 0 0
rthumb 9.76529 -54.9453 0
